<svg width="300" height="300" viewBox="0 0 300 300" xmlns="http://www.w3.org/2000/svg">
  <defs>
    <filter id="stickerShadow" x="-20%" y="-20%" width="140%" height="140%">
      <feDropShadow dx="0" dy="5" stdDeviation="2" flood-color="#000" flood-opacity="0.3"/>
    </filter>

    <linearGradient id="bodyGreen" x1="0%" y1="0%" x2="100%" y2="0%">
      <stop offset="0%" style="stop-color:#8CED28;stop-opacity:1" />
      <stop offset="100%" style="stop-color:#6BC90B;stop-opacity:1" />
    </linearGradient>
  </defs>

  <g filter="url(#stickerShadow)">
    
    <g stroke="#0E3B02" stroke-width="6" stroke-linejoin="round" stroke-linecap="round" fill="url(#bodyGreen)">
      <path d="M115 230 Q 110 250 150 250 Q 190 250 185 230 L 180 210 L 120 210 Z" />
      <path d="M110 215 Q 105 225 115 230 L 185 230 Q 195 225 190 215 L 180 190 L 120 190 Z" />
      <path d="M115 190 Q 110 200 115 210 L 185 210 Q 190 200 185 190 L 175 170 L 125 170 Z" />
      <path d="M120 170 L 115 140 Q 115 120 150 120 Q 185 120 185 140 L 180 170 Z" />
    </g>

    <g stroke="#0E3B02" stroke-width="6" stroke-linejoin="round" stroke-linecap="round" fill="url(#bodyGreen)">
      <path d="M135 125 Q 90 120 70 160 Q 90 170 110 150" />
      <path d="M165 125 Q 210 120 230 160 Q 210 170 190 150" />
      <path d="M140 125 Q 110 60 80 90 Q 100 110 140 125" />
      <path d="M160 125 Q 190 60 220 90 Q 200 110 160 125" />
      <path d="M150 125 Q 150 50 180 60 Q 160 100 150 125" />
    </g>

    <path d="M142 195 Q 150 202 158 195" fill="none" stroke="#0E3B02" stroke-width="4" stroke-linecap="round" />
    <path d="M143 196 Q 150 200 157 196 Z" fill="#FF5555" stroke="none" /> <g transform="translate(112, 165) scale(3.5)">
      <path d="M0 0 H22 V2 H20 V4 H18 V2 H14 V1 H8 V2 H4 V4 H2 V2 H0 V0 Z" fill="black" />
      
      <rect x="2" y="1" width="1" height="1" fill="#00FF00" opacity="0.8"/>
      <rect x="3" y="2" width="1" height="1" fill="#00FF00" opacity="0.6"/>
      <rect x="5" y="1" width="1" height="1" fill="#00FF00" opacity="0.8"/>
      
      <rect x="16" y="1" width="1" height="1" fill="#00FF00" opacity="0.8"/>
      <rect x="17" y="2" width="1" height="1" fill="#00FF00" opacity="0.6"/>
      <rect x="19" y="1" width="1" height="1" fill="#00FF00" opacity="0.8"/>
    </g>

  </g>
</svg>      